<svg width="14" height="16" viewBox="0 0 14 16" fill="none" xmlns="http://www.w3.org/2000/svg">
<g id="elements">
<path id="Vector" d="M3.60942 3.99727C5.20775 2.22134 6.00692 1.33337 7 1.33337C7.99308 1.33337 8.79225 2.22134 10.3906 3.99727L10.6025 4.23273C12.2008 6.00865 13 6.89662 13 8.00004C13 9.10346 12.2008 9.99143 10.6025 11.7674L10.3906 12.0028C8.79225 13.7787 7.99308 14.6667 7 14.6667C6.00692 14.6667 5.20775 13.7787 3.60942 12.0028L3.3975 11.7674C1.79917 9.99143 1 9.10346 1 8.00004C1 6.89662 1.79917 6.00865 3.3975 4.23273L3.60942 3.99727Z" stroke="#19BCE5" stroke-width="2" stroke-linejoin="round"/>
</g>
</svg>
