<svg width="124" height="44" viewBox="0 0 124 44" fill="none" xmlns="http://www.w3.org/2000/svg">
<path d="M46.6071 27.453C46.3478 27.6636 46.0791 27.8642 45.8011 28.0547C45.7315 28.1055 45.6601 28.1525 45.5888 28.1995L45.5455 28.1431C45.3653 27.9153 45.1334 27.7339 44.869 27.6139C44.6047 27.4939 44.3155 27.4387 44.0256 27.453H37.2C37.0136 27.4535 36.8326 27.5157 36.6852 27.6298L36.9463 26.3981C36.9724 26.2748 36.9705 26.1472 36.941 26.0246C36.9114 25.9021 36.8548 25.7877 36.7754 25.6898C36.696 25.592 36.5957 25.5131 36.482 25.459C36.3682 25.4049 36.2438 25.3769 36.1178 25.3771H32.6608C32.4672 25.3768 32.2794 25.4432 32.1288 25.565C31.9783 25.6869 31.8743 25.8569 31.8342 26.0465L30.38 32.9267L16.2327 36.5896C16.1628 36.6075 16.0892 36.6048 16.0207 36.582C15.9523 36.5591 15.8918 36.517 15.8467 36.4607C15.8015 36.4043 15.7735 36.3362 15.766 36.2644C15.7585 36.1925 15.7718 36.12 15.8043 36.0556L18.5436 30.7267C18.5832 30.655 18.6017 30.5735 18.5972 30.4917C18.5927 30.4099 18.5652 30.331 18.518 30.2641C18.4707 30.1972 18.4056 30.1449 18.33 30.1134C18.2545 30.0818 18.1716 30.0721 18.0908 30.0855L7.99985 31.7045C7.87585 31.7209 7.74982 31.6976 7.63987 31.638C7.52991 31.5783 7.44168 31.4853 7.38784 31.3723C7.33399 31.2593 7.31731 31.1321 7.34017 31.009C7.36304 30.8859 7.42429 30.7733 7.51512 30.6872L15.0509 23.7807C15.1118 23.7268 15.1562 23.6568 15.1793 23.5788C15.2023 23.5008 15.203 23.4179 15.1813 23.3395C15.1596 23.2611 15.1163 23.1904 15.0564 23.1354C14.9964 23.0805 14.9223 23.0434 14.8424 23.0286L8.97118 21.8646C8.90037 21.8504 8.83517 21.816 8.78337 21.7656C8.73157 21.7153 8.69538 21.651 8.67913 21.5806C8.66287 21.5102 8.66724 21.4365 8.69172 21.3685C8.71619 21.3005 8.75973 21.241 8.81712 21.1971L29.1869 5.79335C32.0568 3.48139 35.7268 2.40512 39.3896 2.8013C43.0523 3.19748 46.4078 5.03367 48.7179 7.90592C51.0279 10.7782 52.1033 14.4512 51.7075 18.117C51.3116 21.7828 49.4769 25.1411 46.6071 27.453Z" fill="#EA4424"/>
<path d="M42.4191 13.3505L43.6836 13.1625C43.8173 13.1411 43.9543 13.1634 44.0743 13.2261C44.1943 13.2888 44.2909 13.3886 44.3498 13.5107C44.4086 13.6327 44.4266 13.7705 44.401 13.9035C44.3754 14.0366 44.3076 14.1579 44.2077 14.2493L43.2683 15.1161C42.4464 15.8726 41.824 16.8207 41.4565 17.8761C41.0891 18.9314 40.988 20.0613 41.1622 21.1652L41.429 22.8575C41.4491 22.9837 41.4304 23.1129 41.3754 23.2282C41.3204 23.3435 41.2317 23.4393 41.121 23.5029C41.0104 23.5665 40.883 23.595 40.7558 23.5845C40.6286 23.574 40.5076 23.5251 40.4088 23.4442L38.7686 22.1091C37.9036 21.4036 36.8778 20.9229 35.7824 20.7097C34.687 20.4965 33.556 20.5574 32.4897 20.8869L24.1047 23.4686C24.0672 23.4816 24.0263 23.4803 23.9898 23.465C23.9532 23.4498 23.9235 23.4216 23.9063 23.3858C23.8892 23.3501 23.8857 23.3092 23.8967 23.2711C23.9076 23.233 23.9322 23.2002 23.9657 23.1791L31.2009 18.215C32.1214 17.5833 32.872 16.734 33.3859 15.7424C33.8998 14.7508 34.1612 13.6476 34.1468 12.5307L34.1186 10.4153C34.1168 10.2876 34.1539 10.1624 34.2248 10.0562C34.2957 9.9501 34.3972 9.86803 34.5158 9.82092C34.6344 9.77381 34.7645 9.76389 34.8888 9.79247C35.0132 9.82104 35.1259 9.88677 35.2121 9.98093L36.3751 11.2445C37.1314 12.0664 38.0788 12.6887 39.1332 13.0561C40.1876 13.4235 41.3163 13.5246 42.4191 13.3505Z" fill="white"/>
<path d="M38.8007 6.25031L38.6279 5.64108C38.6109 5.57838 38.6144 5.51191 38.6379 5.45135C38.6614 5.3908 38.7036 5.33934 38.7583 5.30448C38.8131 5.26962 38.8775 5.2532 38.9423 5.2576C39.007 5.262 39.0687 5.287 39.1182 5.32894L39.603 5.74826C39.9588 6.0559 40.3853 6.27049 40.8443 6.37287C41.3033 6.47524 41.7805 6.46221 42.2333 6.33493L42.8514 6.16382C42.914 6.14685 42.9804 6.15037 43.041 6.17386C43.1015 6.19734 43.1529 6.23957 43.1877 6.29438C43.2225 6.34918 43.2389 6.4137 43.2345 6.4785C43.2301 6.5433 43.2052 6.605 43.1633 6.65458L42.7443 7.13971C42.4367 7.49581 42.2221 7.92258 42.1194 8.38193C42.0168 8.84128 42.0295 9.31892 42.1562 9.77219L42.3291 10.3908C42.3469 10.4537 42.3439 10.5206 42.3206 10.5816C42.2973 10.6426 42.2549 10.6944 42.1997 10.7293C42.1445 10.7642 42.0796 10.7803 42.0145 10.7752C41.9495 10.7701 41.8878 10.7441 41.8387 10.7011L41.354 10.2836C40.9984 9.97539 40.572 9.76026 40.113 9.65754C39.6539 9.55482 39.1765 9.56773 38.7237 9.6951L38.1056 9.86809C38.0428 9.8859 37.9759 9.88292 37.915 9.85958C37.854 9.83624 37.8023 9.7938 37.7674 9.7386C37.7325 9.6834 37.7164 9.61839 37.7215 9.55327C37.7266 9.48816 37.7526 9.42644 37.7956 9.37732L38.2127 8.89219C38.522 8.53527 38.7378 8.10688 38.8405 7.64567C38.9431 7.18446 38.9295 6.70492 38.8007 6.25031Z" fill="white"/>
<path d="M34.254 21.9399V21.592C34.2533 21.5565 34.2642 21.5216 34.2851 21.4928C34.3059 21.464 34.3356 21.4428 34.3695 21.4324C34.4035 21.422 34.44 21.4229 34.4734 21.4351C34.5068 21.4473 34.5353 21.47 34.5546 21.4999L34.7425 21.7894C34.884 22.0016 35.0757 22.1754 35.3006 22.2955C35.5254 22.4156 35.7765 22.4781 36.0313 22.4777H36.3808C36.4161 22.4774 36.4506 22.4886 36.4791 22.5096C36.5076 22.5306 36.5284 22.5603 36.5386 22.5942C36.5488 22.6281 36.5477 22.6644 36.5355 22.6977C36.5233 22.7309 36.5006 22.7593 36.471 22.7785L36.1816 22.9665C35.9726 23.11 35.8019 23.3027 35.6846 23.5276C35.5673 23.7525 35.507 24.0028 35.509 24.2565V24.6062C35.509 24.6416 35.4975 24.6761 35.4764 24.7046C35.4554 24.733 35.4257 24.7539 35.3918 24.7642C35.358 24.7746 35.3217 24.7737 35.2883 24.7619C35.255 24.75 35.2263 24.7277 35.2065 24.6983L35.0187 24.4088C34.8776 24.1962 34.686 24.022 34.461 23.9018C34.2361 23.7817 33.9848 23.7194 33.7298 23.7206H33.3822C33.3468 23.7205 33.3124 23.7091 33.284 23.688C33.2555 23.6668 33.2346 23.6372 33.2243 23.6033C33.214 23.5694 33.2149 23.5331 33.2267 23.4997C33.2386 23.4663 33.2608 23.4376 33.2902 23.4178L33.5795 23.2298C33.7889 23.0865 33.9599 22.894 34.0776 22.6691C34.1952 22.4441 34.2558 22.1937 34.254 21.9399Z" fill="white"/>
<path d="M54.8042 24.0572C54.0138 24.0572 53.4283 23.819 53.0475 23.3426C52.6667 22.8663 52.5653 22.2307 52.7431 21.436L55.1687 9.93768C55.3178 9.19051 55.7199 8.51772 56.3072 8.03289C56.8791 7.55892 57.6013 7.30487 58.3438 7.31648H67.5781L67.1422 9.40178H60.8727L58.0545 21.9681H64.4781L64.0422 24.0534L54.8042 24.0572Z" fill="#1EBCE5"/>
<path d="M83.0424 24.0571H77.4925L79.5591 14.3546L73.9603 24.0571H71.6757L70.0788 14.3546L68.0121 24.0571H65.9266L69.4663 7.32208H74.5071L76.0345 16.4681L81.3195 7.32208H86.5801L83.0424 24.0571Z" fill="#1EBCE5"/>
<path d="M87.8915 24.0572C87.0987 24.0572 86.5131 23.819 86.1349 23.3426C85.7566 22.8663 85.6552 22.2307 85.8305 21.436L88.256 9.93768C88.4051 9.19051 88.8073 8.51772 89.3946 8.03289C89.9665 7.55892 90.6887 7.30487 91.4312 7.31648H100.665L100.23 9.40178H93.9506L92.8365 14.6404H97.7082L97.2723 16.7351H92.4006L91.2846 21.9756H97.5635L97.1333 24.0572H87.8915Z" fill="#1EBCE5"/>
<path d="M114.042 21.4359C113.895 22.1816 113.497 22.8544 112.915 23.3426C112.343 23.816 111.621 24.0694 110.878 24.0571H98.8542L102.392 7.32208H114.416C115.207 7.32208 115.792 7.56089 116.173 8.03849C116.554 8.5161 116.655 9.15103 116.475 9.94328L114.042 21.4359ZM107.525 9.40174L104.859 21.9681H108.35L111.016 9.40174H107.525Z" fill="#1EBCE5"/>
<path d="M33.9252 36.5934H30.4683L32.6627 26.2139H36.1197L33.9252 36.5934Z" fill="black"/>
<path d="M43.5446 36.5934H40.3507L41.8969 29.433H40.1684L38.6353 36.5934H35.4414L37.2 28.2898H44.0237C44.1838 28.2777 44.3444 28.3042 44.4921 28.367C44.6399 28.4298 44.7705 28.5271 44.8729 28.6508C44.9688 28.7853 45.0328 28.9398 45.0601 29.1027C45.0875 29.2656 45.0774 29.4325 45.0307 29.591L43.5446 36.5934Z" fill="black"/>
<path d="M52.9536 36.5934H49.7597L51.2928 29.433H49.5643L48.0312 36.5934H44.8373L46.6109 28.2898H53.4346C53.5947 28.2777 53.7553 28.3042 53.9031 28.367C54.0508 28.4298 54.1814 28.5271 54.2838 28.6508C54.3797 28.7853 54.4437 28.9398 54.471 29.1027C54.4984 29.2656 54.4883 29.4325 54.4416 29.591L52.9536 36.5934Z" fill="black"/>
<path d="M55.4787 29.5834C55.5523 29.2187 55.7497 28.8907 56.0373 28.655C56.3249 28.4192 56.6851 28.2902 57.0568 28.2898H62.588C62.7481 28.2777 62.9087 28.3042 63.0564 28.367C63.2042 28.4298 63.3347 28.5271 63.4372 28.6508C63.5327 28.7854 63.5964 28.94 63.6238 29.1028C63.6511 29.2656 63.6413 29.4325 63.595 29.591L62.4677 34.9763C62.3739 35.439 62.1246 35.8557 61.7613 36.1571C61.4066 36.4506 60.959 36.6079 60.4988 36.6009H55.6121C55.1217 36.6009 54.7572 36.4523 54.5224 36.1571C54.2875 35.8619 54.2236 35.467 54.3345 34.9763L55.4787 29.5834ZM58.7252 29.433L57.4326 35.4501H59.1611L60.4537 29.433H58.7252Z" fill="black"/>
<path d="M68.8707 36.5934H65.6768L65.2108 28.2898H68.4048L68.7204 34.0343L71.516 28.288H72.8969L68.8707 36.5934Z" fill="black"/>
<path d="M80.0683 36.5934H73.5902C73.098 36.5934 72.7347 36.4454 72.5005 36.1496C72.2657 35.8525 72.2018 35.4595 72.3126 34.9688L72.9589 31.885C73.0303 31.515 73.2299 31.182 73.5226 30.9448C73.804 30.7074 74.1615 30.5792 74.5296 30.5838H78.1575L78.413 29.4255H75.0782L75.3187 28.2823H80.5492C80.7093 28.2702 80.8699 28.2967 81.0177 28.3595C81.1654 28.4223 81.296 28.5196 81.3984 28.6433C81.4934 28.7782 81.5569 28.9327 81.5842 29.0954C81.6115 29.2581 81.602 29.4249 81.5563 29.5835L80.0683 36.5934ZM76.1904 31.7496L75.3938 35.4501H77.1223L77.9189 31.7496H76.1904Z" fill="black"/>
<path d="M84.0361 36.5934C83.5439 36.5934 83.1807 36.4455 82.9464 36.1496C82.7122 35.8538 82.6496 35.4602 82.7586 34.9688L83.9309 29.4331H82.3828L82.6233 28.2898H84.1695L84.6054 26.2214H87.7994L87.3635 28.2898H88.9266L88.6861 29.4331H87.123L85.8454 35.4502H87.4086L87.1756 36.5934H84.0361Z" fill="black"/>
<path d="M91.6717 36.5934H88.4778L90.2363 28.2898H93.4303L91.6717 36.5934ZM93.6257 27.3571H90.4317L90.6722 26.2139H93.8661L93.6257 27.3571Z" fill="black"/>
<path d="M94.4072 29.5834C94.4809 29.2187 94.6782 28.8907 94.9658 28.655C95.2534 28.4192 95.6136 28.2902 95.9854 28.2898H101.517C101.677 28.2779 101.837 28.3044 101.985 28.3672C102.133 28.43 102.263 28.5272 102.366 28.6508C102.461 28.7857 102.524 28.9402 102.552 29.1029C102.579 29.2656 102.569 29.4324 102.524 29.591L101.396 34.9763C101.302 35.439 101.053 35.8557 100.69 36.1571C100.335 36.4506 99.8875 36.6079 99.4273 36.6009H94.5425C94.0502 36.6009 93.687 36.4529 93.4528 36.1571C93.2186 35.8613 93.1559 35.4677 93.2649 34.9763L94.4072 29.5834ZM97.6538 29.433L96.3612 35.4501H98.0896L99.3822 29.433H97.6538Z" fill="black"/>
<path d="M110.7 36.5933H107.506L109.039 29.433H107.311L105.778 36.5933H102.582L104.355 28.2898H111.179C111.339 28.2779 111.5 28.3044 111.647 28.3672C111.795 28.43 111.926 28.5272 112.028 28.6508C112.123 28.7857 112.187 28.9402 112.214 29.1029C112.241 29.2656 112.232 29.4324 112.186 29.591L110.7 36.5933Z" fill="black"/>
</svg>
