<svg width="107" height="88" viewBox="0 0 107 88" fill="none" xmlns="http://www.w3.org/2000/svg">
<g id="&#226;&#128;&#156;" filter="url(#filter0_d_3_202)">
<path d="M86.2292 70C87.2246 70 88.0704 69.2679 88.1987 68.2808C88.7329 64.1709 89 60.5958 89 57.5556C89 53.8222 88.6547 49.7432 87.9641 45.3185C86.3066 35.916 82.5083 28.3802 76.5691 22.7111C71.132 17.3947 64.1902 14.5118 55.7436 14.0623C54.5034 13.9963 53.56 15.1201 53.7734 16.3436L55.3548 25.4103C55.5218 26.3678 56.3574 27.0496 57.3234 27.1578C63.5302 27.8528 67.4592 32.5237 69.1105 41.1704L69.2233 42.0174C69.383 43.2163 68.4503 44.2815 67.2408 44.2815H58.6508C57.4066 44.2815 56.4644 45.4054 56.6815 46.6305L60.5306 68.349C60.6999 69.3041 61.53 70 62.4999 70H86.2292ZM46.8646 70C47.86 70 48.7057 69.2679 48.834 68.2808C49.3683 64.1709 49.6354 60.5958 49.6354 57.5556C49.6354 53.8222 49.2901 49.7432 48.5994 45.3185C46.8039 35.916 43.0055 28.3802 37.2044 22.7111C31.7674 17.3947 24.8256 14.5118 16.379 14.0623C15.1387 13.9963 14.1954 15.1201 14.4088 16.3436L15.9901 25.4103C16.1571 26.3678 16.9928 27.0496 17.9587 27.1578C24.1656 27.8528 28.0946 32.5237 29.7459 41.1704L29.8587 42.0174C30.0184 43.2163 29.0857 44.2815 27.8762 44.2815H19.4745C18.2366 44.2815 17.296 45.3946 17.5025 46.6151L21.1767 68.3336C21.3394 69.2958 22.1728 70 23.1486 70H46.8646Z" fill="#19BCE5"/>
</g>
<defs>
<filter id="filter0_d_3_202" x="0.37854" y="0.0595703" width="106.621" height="87.9404" filterUnits="userSpaceOnUse" color-interpolation-filters="sRGB">
<feFlood flood-opacity="0" result="BackgroundImageFix"/>
<feColorMatrix in="SourceAlpha" type="matrix" values="0 0 0 0 0 0 0 0 0 0 0 0 0 0 0 0 0 0 127 0" result="hardAlpha"/>
<feOffset dx="2" dy="2"/>
<feGaussianBlur stdDeviation="8"/>
<feComposite in2="hardAlpha" operator="out"/>
<feColorMatrix type="matrix" values="0 0 0 0 0.0980392 0 0 0 0 0.737255 0 0 0 0 0.898039 0 0 0 0.2 0"/>
<feBlend mode="normal" in2="BackgroundImageFix" result="effect1_dropShadow_3_202"/>
<feBlend mode="normal" in="SourceGraphic" in2="effect1_dropShadow_3_202" result="shape"/>
</filter>
</defs>
</svg>
