<svg width="102" height="31" viewBox="0 0 102 31" fill="none" xmlns="http://www.w3.org/2000/svg">
<path d="M9.80506 14.9617L0.0898438 25.5059C0.0907562 25.5078 0.0907561 25.5106 0.0916686 25.5125C0.390051 26.6574 1.41203 27.5 2.62564 27.5C3.11108 27.5 3.56641 27.3656 3.95695 27.1305L3.98798 27.1118L14.9232 20.6593L9.80506 14.9617Z" fill="#EA4335"/>
<path d="M19.6332 13.1662L19.624 13.1597L14.9029 10.3612L9.58398 15.2013L14.922 20.6582L19.6177 17.8878C20.4407 17.4324 21.0001 16.545 21.0001 15.5223C21.0001 14.5052 20.4489 13.6225 19.6332 13.1662Z" fill="#FBBC04"/>
<path d="M0.0894234 5.49325C0.0310244 5.71346 0 5.94488 0 6.18376V24.8163C0 25.0552 0.0310245 25.2866 0.0903359 25.5059L10.1386 15.2313L0.0894234 5.49325Z" fill="#4285F4"/>
<path d="M9.87715 15.5L14.9049 10.3594L3.9825 3.8836C3.58557 3.64005 3.12203 3.50009 2.62655 3.50009C1.41295 3.50009 0.389138 4.34456 0.0907557 5.49043C0.0907557 5.49136 0.0898438 5.4923 0.0898438 5.49323L9.87715 15.5Z" fill="#34A853"/>
<path d="M35.61 7.21C35.61 8.21 35.3133 9.00667 34.72 9.6C34.0533 10.3067 33.1767 10.66 32.09 10.66C31.05 10.66 30.17 10.3 29.45 9.58C28.73 8.86 28.37 7.97333 28.37 6.92C28.37 5.86667 28.73 4.98 29.45 4.26C30.17 3.54 31.05 3.18 32.09 3.18C32.6167 3.18 33.1133 3.27333 33.58 3.46C34.0467 3.64667 34.43 3.91 34.73 4.25L34.07 4.91C33.85 4.64333 33.5633 4.43667 33.21 4.29C32.8633 4.13667 32.49 4.06 32.09 4.06C31.31 4.06 30.65 4.33 30.11 4.87C29.5767 5.41667 29.31 6.1 29.31 6.92C29.31 7.74 29.5767 8.42333 30.11 8.97C30.65 9.51 31.31 9.78 32.09 9.78C32.8033 9.78 33.3967 9.58 33.87 9.18C34.3433 8.78 34.6167 8.23 34.69 7.53H32.09V6.67H35.56C35.5933 6.85667 35.61 7.03667 35.61 7.21ZM40.9078 3.34V4.22H37.6478V6.49H40.5878V7.35H37.6478V9.62H40.9078V10.5H36.7278V3.34H40.9078ZM44.5877 4.22V10.5H43.6677V4.22H41.6677V3.34H46.5877V4.22H44.5877ZM50.6654 10.5H49.7454V3.34H50.6654V10.5ZM54.5487 4.22V10.5H53.6287V4.22H51.6287V3.34H56.5487V4.22H54.5487ZM66.521 6.92C66.521 7.98 66.1677 8.86667 65.461 9.58C64.7477 10.3 63.8743 10.66 62.841 10.66C61.801 10.66 60.9277 10.3 60.221 9.58C59.5143 8.86667 59.161 7.98 59.161 6.92C59.161 5.86 59.5143 4.97333 60.221 4.26C60.9277 3.54 61.801 3.18 62.841 3.18C63.881 3.18 64.7543 3.54333 65.461 4.27C66.1677 4.98333 66.521 5.86667 66.521 6.92ZM60.101 6.92C60.101 7.74667 60.361 8.43 60.881 8.97C61.4077 9.51 62.061 9.78 62.841 9.78C63.621 9.78 64.271 9.51 64.791 8.97C65.3177 8.43667 65.581 7.75333 65.581 6.92C65.581 6.08667 65.3177 5.40333 64.791 4.87C64.271 4.33 63.621 4.06 62.841 4.06C62.061 4.06 61.4077 4.33 60.881 4.87C60.361 5.41 60.101 6.09333 60.101 6.92ZM68.5267 10.5H67.6067V3.34H68.7267L72.2067 8.91H72.2467L72.2067 7.53V3.34H73.1267V10.5H72.1667L68.5267 4.66H68.4867L68.5267 6.04V10.5Z" fill="white"/>
<path d="M85.5181 26.9097H87.1469V15.8981H85.5181V26.9097ZM100.189 19.8646L98.3217 24.6388H98.2658L96.328 19.8646H94.5735L97.4793 26.5371L95.8234 30.249H97.5212L102 19.8646H100.189ZM90.9519 25.6588C90.4176 25.6588 89.6739 25.3902 89.6739 24.7234C89.6739 23.8742 90.6001 23.5483 91.4005 23.5483C92.1163 23.5483 92.4541 23.7042 92.8888 23.9165C92.7622 24.9365 91.892 25.6588 90.9519 25.6588ZM91.1483 19.6241C89.969 19.6241 88.7469 20.1482 88.2424 21.3101L89.6879 21.9188C89.9969 21.3101 90.5721 21.111 91.1762 21.111C92.0185 21.111 92.8748 21.621 92.8888 22.5283V22.6411C92.5938 22.471 91.9627 22.2165 91.1902 22.2165C89.632 22.2165 88.0451 23.0806 88.0451 24.6952C88.0451 26.1689 89.323 27.1184 90.7546 27.1184C91.8501 27.1184 92.4541 26.6225 92.8329 26.0411H92.8888V26.8912H94.4609V22.6692C94.4609 20.7146 93.0154 19.6241 91.1483 19.6241ZM81.0821 21.2053H78.7655V17.4308H81.0821C82.2998 17.4308 82.9911 18.4482 82.9911 19.3176C82.9911 20.1711 82.2998 21.2053 81.0821 21.2053ZM81.0402 15.8981H77.1375V26.9097H78.7655V22.7379H81.0402C82.8453 22.7379 84.6199 21.4184 84.6199 19.3176C84.6199 17.2168 82.8453 15.8981 81.0402 15.8981ZM59.7583 25.6606C58.6332 25.6606 57.6913 24.7102 57.6913 23.4047C57.6913 22.0852 58.6332 21.1198 59.7583 21.1198C60.8695 21.1198 61.7406 22.0852 61.7406 23.4047C61.7406 24.7102 60.8695 25.6606 59.7583 25.6606ZM61.6289 20.4812H61.5722C61.2064 20.0417 60.5038 19.6444 59.6178 19.6444C57.7611 19.6444 56.0599 21.2898 56.0599 23.4047C56.0599 25.5047 57.7611 27.1369 59.6178 27.1369C60.5038 27.1369 61.2064 26.7396 61.5722 26.2851H61.6289V26.8251C61.6289 28.2582 60.8695 29.0246 59.6457 29.0246C58.6471 29.0246 58.0282 28.3005 57.7751 27.6901L56.3549 28.2864C56.7626 29.28 57.8458 30.5 59.6457 30.5C61.5582 30.5 63.1757 29.3646 63.1757 26.5978V19.8708H61.6289V20.4812ZM64.3008 26.9097H65.9323V15.8973H64.3008V26.9097ZM68.3362 23.277C68.2943 21.8298 69.4474 21.0916 70.2766 21.0916C70.9243 21.0916 71.4725 21.4176 71.6549 21.8862L68.3362 23.277ZM73.3989 22.028C73.0899 21.1912 72.1472 19.6444 70.2208 19.6444C68.3083 19.6444 66.7196 21.1621 66.7196 23.3907C66.7196 25.4906 68.2943 27.1369 70.4032 27.1369C72.1053 27.1369 73.0899 26.0869 73.4976 25.4765L72.2319 24.6247C71.8103 25.2493 71.2333 25.6606 70.4032 25.6606C69.5739 25.6606 68.983 25.2774 68.6033 24.5261L73.5674 22.4534L73.3989 22.028ZM33.8501 20.7939V22.383H37.6184C37.5058 23.277 37.2107 23.9297 36.7612 24.3834C36.2121 24.9374 35.3541 25.5479 33.8501 25.5479C31.5291 25.5479 29.7152 23.6602 29.7152 21.3189C29.7152 18.9767 31.5291 17.0899 33.8501 17.0899C35.1018 17.0899 36.0157 17.5867 36.6905 18.2254L37.8017 17.104C36.8589 16.1959 35.6081 15.5 33.8501 15.5C30.6719 15.5 28 18.1117 28 21.3189C28 24.5261 30.6719 27.1369 33.8501 27.1369C35.5653 27.1369 36.8589 26.5688 37.8715 25.5047C38.9129 24.4547 39.2358 22.9793 39.2358 21.7866C39.2358 21.4176 39.2079 21.0775 39.1512 20.7939H33.8501ZM43.5208 25.6606C42.3957 25.6606 41.425 24.7243 41.425 23.3907C41.425 22.0421 42.3957 21.1198 43.5208 21.1198C44.6451 21.1198 45.6158 22.0421 45.6158 23.3907C45.6158 24.7243 44.6451 25.6606 43.5208 25.6606ZM43.5208 19.6444C41.4669 19.6444 39.7936 21.2194 39.7936 23.3907C39.7936 25.5479 41.4669 27.1369 43.5208 27.1369C45.5739 27.1369 47.2472 25.5479 47.2472 23.3907C47.2472 21.2194 45.5739 19.6444 43.5208 19.6444ZM51.65 25.6606C50.5249 25.6606 49.5542 24.7243 49.5542 23.3907C49.5542 22.0421 50.5249 21.1198 51.65 21.1198C52.7752 21.1198 53.745 22.0421 53.745 23.3907C53.745 24.7243 52.7752 25.6606 51.65 25.6606ZM51.65 19.6444C49.597 19.6444 47.9237 21.2194 47.9237 23.3907C47.9237 25.5479 49.597 27.1369 51.65 27.1369C53.7031 27.1369 55.3764 25.5479 55.3764 23.3907C55.3764 21.2194 53.7031 19.6444 51.65 19.6444Z" fill="white"/>
</svg>
